<?xml version="1.0" encoding="utf-8" standalone="no"?>
<!DOCTYPE svg PUBLIC "-//W3C//DTD SVG 1.1//EN"
  "http://www.w3.org/Graphics/SVG/1.1/DTD/svg11.dtd">
<svg xmlns:xlink="http://www.w3.org/1999/xlink" width="460.8pt" height="345.6pt" viewBox="0 0 460.8 345.6" xmlns="http://www.w3.org/2000/svg" version="1.1">
 <metadata>
  <rdf:RDF xmlns:dc="http://purl.org/dc/elements/1.1/" xmlns:cc="http://creativecommons.org/ns#" xmlns:rdf="http://www.w3.org/1999/02/22-rdf-syntax-ns#">
   <cc:Work>
    <dc:type rdf:resource="http://purl.org/dc/dcmitype/StillImage"/>
    <dc:date>2025-04-03T14:54:29.566368</dc:date>
    <dc:format>image/svg+xml</dc:format>
    <dc:creator>
     <cc:Agent>
      <dc:title>Matplotlib v3.9.1, https://matplotlib.org/</dc:title>
     </cc:Agent>
    </dc:creator>
   </cc:Work>
  </rdf:RDF>
 </metadata>
 <defs>
  <style type="text/css">*{stroke-linejoin: round; stroke-linecap: butt}</style>
 </defs>
 <g id="figure_1">
  <g id="patch_1">
   <path d="M 0 345.6 
L 460.8 345.6 
L 460.8 0 
L 0 0 
z
" style="fill: #ffffff"/>
  </g>
  <g id="axes_1">
   <g id="patch_2">
    <path d="M 53.03 256.5207 
L 412.99 256.5207 
L 412.99 14.76 
L 53.03 14.76 
z
" style="fill: #ffffff"/>
   </g>
   <g id="matplotlib.axis_1">
    <g id="xtick_1">
     <g id="line2d_1">
      <defs>
       <path id="me334ebbe74" d="M 0 0 
L 0 3.5 
" style="stroke: #000000; stroke-width: 0.8"/>
      </defs>
      <g>
       <use xlink:href="#me334ebbe74" x="53.03" y="256.5207" style="stroke: #000000; stroke-width: 0.8"/>
      </g>
     </g>
     <g id="text_1">
      <!-- 02 -->
      <g transform="translate(46.6675 271.119138) scale(0.1 -0.1)">
       <defs>
        <path id="DejaVuSans-30" d="M 2034 4250 
Q 1547 4250 1301 3770 
Q 1056 3291 1056 2328 
Q 1056 1369 1301 889 
Q 1547 409 2034 409 
Q 2525 409 2770 889 
Q 3016 1369 3016 2328 
Q 3016 3291 2770 3770 
Q 2525 4250 2034 4250 
z
M 2034 4750 
Q 2819 4750 3233 4129 
Q 3647 3509 3647 2328 
Q 3647 1150 3233 529 
Q 2819 -91 2034 -91 
Q 1250 -91 836 529 
Q 422 1150 422 2328 
Q 422 3509 836 4129 
Q 1250 4750 2034 4750 
z
" transform="scale(0.015625)"/>
        <path id="DejaVuSans-32" d="M 1228 531 
L 3431 531 
L 3431 0 
L 469 0 
L 469 531 
Q 828 903 1448 1529 
Q 2069 2156 2228 2338 
Q 2531 2678 2651 2914 
Q 2772 3150 2772 3378 
Q 2772 3750 2511 3984 
Q 2250 4219 1831 4219 
Q 1534 4219 1204 4116 
Q 875 4013 500 3803 
L 500 4441 
Q 881 4594 1212 4672 
Q 1544 4750 1819 4750 
Q 2544 4750 2975 4387 
Q 3406 4025 3406 3419 
Q 3406 3131 3298 2873 
Q 3191 2616 2906 2266 
Q 2828 2175 2409 1742 
Q 1991 1309 1228 531 
z
" transform="scale(0.015625)"/>
       </defs>
       <use xlink:href="#DejaVuSans-30"/>
       <use xlink:href="#DejaVuSans-32" x="63.623047"/>
      </g>
      <!-- May -->
      <g transform="translate(42.6925 282.31695) scale(0.1 -0.1)">
       <defs>
        <path id="DejaVuSans-4d" d="M 628 4666 
L 1569 4666 
L 2759 1491 
L 3956 4666 
L 4897 4666 
L 4897 0 
L 4281 0 
L 4281 4097 
L 3078 897 
L 2444 897 
L 1241 4097 
L 1241 0 
L 628 0 
L 628 4666 
z
" transform="scale(0.015625)"/>
        <path id="DejaVuSans-61" d="M 2194 1759 
Q 1497 1759 1228 1600 
Q 959 1441 959 1056 
Q 959 750 1161 570 
Q 1363 391 1709 391 
Q 2188 391 2477 730 
Q 2766 1069 2766 1631 
L 2766 1759 
L 2194 1759 
z
M 3341 1997 
L 3341 0 
L 2766 0 
L 2766 531 
Q 2569 213 2275 61 
Q 1981 -91 1556 -91 
Q 1019 -91 701 211 
Q 384 513 384 1019 
Q 384 1609 779 1909 
Q 1175 2209 1959 2209 
L 2766 2209 
L 2766 2266 
Q 2766 2663 2505 2880 
Q 2244 3097 1772 3097 
Q 1472 3097 1187 3025 
Q 903 2953 641 2809 
L 641 3341 
Q 956 3463 1253 3523 
Q 1550 3584 1831 3584 
Q 2591 3584 2966 3190 
Q 3341 2797 3341 1997 
z
" transform="scale(0.015625)"/>
        <path id="DejaVuSans-79" d="M 2059 -325 
Q 1816 -950 1584 -1140 
Q 1353 -1331 966 -1331 
L 506 -1331 
L 506 -850 
L 844 -850 
Q 1081 -850 1212 -737 
Q 1344 -625 1503 -206 
L 1606 56 
L 191 3500 
L 800 3500 
L 1894 763 
L 2988 3500 
L 3597 3500 
L 2059 -325 
z
" transform="scale(0.015625)"/>
       </defs>
       <use xlink:href="#DejaVuSans-4d"/>
       <use xlink:href="#DejaVuSans-61" x="86.279297"/>
       <use xlink:href="#DejaVuSans-79" x="147.558594"/>
      </g>
      <!-- 2063 -->
      <g transform="translate(40.305 293.514763) scale(0.1 -0.1)">
       <defs>
        <path id="DejaVuSans-36" d="M 2113 2584 
Q 1688 2584 1439 2293 
Q 1191 2003 1191 1497 
Q 1191 994 1439 701 
Q 1688 409 2113 409 
Q 2538 409 2786 701 
Q 3034 994 3034 1497 
Q 3034 2003 2786 2293 
Q 2538 2584 2113 2584 
z
M 3366 4563 
L 3366 3988 
Q 3128 4100 2886 4159 
Q 2644 4219 2406 4219 
Q 1781 4219 1451 3797 
Q 1122 3375 1075 2522 
Q 1259 2794 1537 2939 
Q 1816 3084 2150 3084 
Q 2853 3084 3261 2657 
Q 3669 2231 3669 1497 
Q 3669 778 3244 343 
Q 2819 -91 2113 -91 
Q 1303 -91 875 529 
Q 447 1150 447 2328 
Q 447 3434 972 4092 
Q 1497 4750 2381 4750 
Q 2619 4750 2861 4703 
Q 3103 4656 3366 4563 
z
" transform="scale(0.015625)"/>
        <path id="DejaVuSans-33" d="M 2597 2516 
Q 3050 2419 3304 2112 
Q 3559 1806 3559 1356 
Q 3559 666 3084 287 
Q 2609 -91 1734 -91 
Q 1441 -91 1130 -33 
Q 819 25 488 141 
L 488 750 
Q 750 597 1062 519 
Q 1375 441 1716 441 
Q 2309 441 2620 675 
Q 2931 909 2931 1356 
Q 2931 1769 2642 2001 
Q 2353 2234 1838 2234 
L 1294 2234 
L 1294 2753 
L 1863 2753 
Q 2328 2753 2575 2939 
Q 2822 3125 2822 3475 
Q 2822 3834 2567 4026 
Q 2313 4219 1838 4219 
Q 1578 4219 1281 4162 
Q 984 4106 628 3988 
L 628 4550 
Q 988 4650 1302 4700 
Q 1616 4750 1894 4750 
Q 2613 4750 3031 4423 
Q 3450 4097 3450 3541 
Q 3450 3153 3228 2886 
Q 3006 2619 2597 2516 
z
" transform="scale(0.015625)"/>
       </defs>
       <use xlink:href="#DejaVuSans-32"/>
       <use xlink:href="#DejaVuSans-30" x="63.623047"/>
       <use xlink:href="#DejaVuSans-36" x="127.246094"/>
       <use xlink:href="#DejaVuSans-33" x="190.869141"/>
      </g>
     </g>
    </g>
    <g id="xtick_2">
     <g id="line2d_2">
      <g>
       <use xlink:href="#me334ebbe74" x="412.99" y="256.5207" style="stroke: #000000; stroke-width: 0.8"/>
      </g>
     </g>
     <g id="text_2">
      <!-- 07 -->
      <g transform="translate(406.6275 271.119138) scale(0.1 -0.1)">
       <defs>
        <path id="DejaVuSans-37" d="M 525 4666 
L 3525 4666 
L 3525 4397 
L 1831 0 
L 1172 0 
L 2766 4134 
L 525 4134 
L 525 4666 
z
" transform="scale(0.015625)"/>
       </defs>
       <use xlink:href="#DejaVuSans-30"/>
       <use xlink:href="#DejaVuSans-37" x="63.623047"/>
      </g>
     </g>
    </g>
    <g id="xtick_3">
     <g id="line2d_3">
      <defs>
       <path id="mcf60349a55" d="M 0 0 
L 0 2 
" style="stroke: #000000; stroke-width: 0.6"/>
      </defs>
      <g>
       <use xlink:href="#mcf60349a55" x="125.022" y="256.5207" style="stroke: #000000; stroke-width: 0.6"/>
      </g>
     </g>
     <g id="text_3">
      <!-- 03 -->
      <g transform="translate(118.6595 269.519137) scale(0.1 -0.1)">
       <use xlink:href="#DejaVuSans-30"/>
       <use xlink:href="#DejaVuSans-33" x="63.623047"/>
      </g>
     </g>
    </g>
    <g id="xtick_4">
     <g id="line2d_4">
      <g>
       <use xlink:href="#mcf60349a55" x="197.014" y="256.5207" style="stroke: #000000; stroke-width: 0.6"/>
      </g>
     </g>
     <g id="text_4">
      <!-- 04 -->
      <g transform="translate(190.6515 269.519137) scale(0.1 -0.1)">
       <defs>
        <path id="DejaVuSans-34" d="M 2419 4116 
L 825 1625 
L 2419 1625 
L 2419 4116 
z
M 2253 4666 
L 3047 4666 
L 3047 1625 
L 3713 1625 
L 3713 1100 
L 3047 1100 
L 3047 0 
L 2419 0 
L 2419 1100 
L 313 1100 
L 313 1709 
L 2253 4666 
z
" transform="scale(0.015625)"/>
       </defs>
       <use xlink:href="#DejaVuSans-30"/>
       <use xlink:href="#DejaVuSans-34" x="63.623047"/>
      </g>
     </g>
    </g>
    <g id="xtick_5">
     <g id="line2d_5">
      <g>
       <use xlink:href="#mcf60349a55" x="269.006" y="256.5207" style="stroke: #000000; stroke-width: 0.6"/>
      </g>
     </g>
     <g id="text_5">
      <!-- 05 -->
      <g transform="translate(262.6435 269.519137) scale(0.1 -0.1)">
       <defs>
        <path id="DejaVuSans-35" d="M 691 4666 
L 3169 4666 
L 3169 4134 
L 1269 4134 
L 1269 2991 
Q 1406 3038 1543 3061 
Q 1681 3084 1819 3084 
Q 2600 3084 3056 2656 
Q 3513 2228 3513 1497 
Q 3513 744 3044 326 
Q 2575 -91 1722 -91 
Q 1428 -91 1123 -41 
Q 819 9 494 109 
L 494 744 
Q 775 591 1075 516 
Q 1375 441 1709 441 
Q 2250 441 2565 725 
Q 2881 1009 2881 1497 
Q 2881 1984 2565 2268 
Q 2250 2553 1709 2553 
Q 1456 2553 1204 2497 
Q 953 2441 691 2322 
L 691 4666 
z
" transform="scale(0.015625)"/>
       </defs>
       <use xlink:href="#DejaVuSans-30"/>
       <use xlink:href="#DejaVuSans-35" x="63.623047"/>
      </g>
     </g>
    </g>
    <g id="xtick_6">
     <g id="line2d_6">
      <g>
       <use xlink:href="#mcf60349a55" x="340.998" y="256.5207" style="stroke: #000000; stroke-width: 0.6"/>
      </g>
     </g>
     <g id="text_6">
      <!-- 06 -->
      <g transform="translate(334.6355 269.519137) scale(0.1 -0.1)">
       <use xlink:href="#DejaVuSans-30"/>
       <use xlink:href="#DejaVuSans-36" x="63.623047"/>
      </g>
     </g>
    </g>
   </g>
   <g id="matplotlib.axis_2">
    <g id="ytick_1">
     <g id="line2d_7">
      <defs>
       <path id="me62041553b" d="M 0 0 
L -3.5 0 
" style="stroke: #000000; stroke-width: 0.8"/>
      </defs>
      <g>
       <use xlink:href="#me62041553b" x="53.03" y="250.745419" style="stroke: #000000; stroke-width: 0.8"/>
      </g>
     </g>
     <g id="text_7">
      <!-- −15 -->
      <g transform="translate(24.925313 254.544638) scale(0.1 -0.1)">
       <defs>
        <path id="DejaVuSans-2212" d="M 678 2272 
L 4684 2272 
L 4684 1741 
L 678 1741 
L 678 2272 
z
" transform="scale(0.015625)"/>
        <path id="DejaVuSans-31" d="M 794 531 
L 1825 531 
L 1825 4091 
L 703 3866 
L 703 4441 
L 1819 4666 
L 2450 4666 
L 2450 531 
L 3481 531 
L 3481 0 
L 794 0 
L 794 531 
z
" transform="scale(0.015625)"/>
       </defs>
       <use xlink:href="#DejaVuSans-2212"/>
       <use xlink:href="#DejaVuSans-31" x="83.789062"/>
       <use xlink:href="#DejaVuSans-35" x="147.412109"/>
      </g>
     </g>
    </g>
    <g id="ytick_2">
     <g id="line2d_8">
      <g>
       <use xlink:href="#me62041553b" x="53.03" y="212.171109" style="stroke: #000000; stroke-width: 0.8"/>
      </g>
     </g>
     <g id="text_8">
      <!-- −10 -->
      <g transform="translate(24.925313 215.970328) scale(0.1 -0.1)">
       <use xlink:href="#DejaVuSans-2212"/>
       <use xlink:href="#DejaVuSans-31" x="83.789062"/>
       <use xlink:href="#DejaVuSans-30" x="147.412109"/>
      </g>
     </g>
    </g>
    <g id="ytick_3">
     <g id="line2d_9">
      <g>
       <use xlink:href="#me62041553b" x="53.03" y="173.5968" style="stroke: #000000; stroke-width: 0.8"/>
      </g>
     </g>
     <g id="text_9">
      <!-- −5 -->
      <g transform="translate(31.287813 177.396019) scale(0.1 -0.1)">
       <use xlink:href="#DejaVuSans-2212"/>
       <use xlink:href="#DejaVuSans-35" x="83.789062"/>
      </g>
     </g>
    </g>
    <g id="ytick_4">
     <g id="line2d_10">
      <g>
       <use xlink:href="#me62041553b" x="53.03" y="135.02249" style="stroke: #000000; stroke-width: 0.8"/>
      </g>
     </g>
     <g id="text_10">
      <!-- 0 -->
      <g transform="translate(39.6675 138.821709) scale(0.1 -0.1)">
       <use xlink:href="#DejaVuSans-30"/>
      </g>
     </g>
    </g>
    <g id="ytick_5">
     <g id="line2d_11">
      <g>
       <use xlink:href="#me62041553b" x="53.03" y="96.448181" style="stroke: #000000; stroke-width: 0.8"/>
      </g>
     </g>
     <g id="text_11">
      <!-- 5 -->
      <g transform="translate(39.6675 100.2474) scale(0.1 -0.1)">
       <use xlink:href="#DejaVuSans-35"/>
      </g>
     </g>
    </g>
    <g id="ytick_6">
     <g id="line2d_12">
      <g>
       <use xlink:href="#me62041553b" x="53.03" y="57.873871" style="stroke: #000000; stroke-width: 0.8"/>
      </g>
     </g>
     <g id="text_12">
      <!-- 10 -->
      <g transform="translate(33.305 61.67309) scale(0.1 -0.1)">
       <use xlink:href="#DejaVuSans-31"/>
       <use xlink:href="#DejaVuSans-30" x="63.623047"/>
      </g>
     </g>
    </g>
    <g id="ytick_7">
     <g id="line2d_13">
      <g>
       <use xlink:href="#me62041553b" x="53.03" y="19.299562" style="stroke: #000000; stroke-width: 0.8"/>
      </g>
     </g>
     <g id="text_13">
      <!-- 15 -->
      <g transform="translate(33.305 23.098781) scale(0.1 -0.1)">
       <use xlink:href="#DejaVuSans-31"/>
       <use xlink:href="#DejaVuSans-35" x="63.623047"/>
      </g>
     </g>
    </g>
    <g id="text_14">
     <!-- Leistung pro Fahrzeug in kW -->
     <g transform="translate(18.845625 206.562225) rotate(-90) scale(0.1 -0.1)">
      <defs>
       <path id="DejaVuSans-4c" d="M 628 4666 
L 1259 4666 
L 1259 531 
L 3531 531 
L 3531 0 
L 628 0 
L 628 4666 
z
" transform="scale(0.015625)"/>
       <path id="DejaVuSans-65" d="M 3597 1894 
L 3597 1613 
L 953 1613 
Q 991 1019 1311 708 
Q 1631 397 2203 397 
Q 2534 397 2845 478 
Q 3156 559 3463 722 
L 3463 178 
Q 3153 47 2828 -22 
Q 2503 -91 2169 -91 
Q 1331 -91 842 396 
Q 353 884 353 1716 
Q 353 2575 817 3079 
Q 1281 3584 2069 3584 
Q 2775 3584 3186 3129 
Q 3597 2675 3597 1894 
z
M 3022 2063 
Q 3016 2534 2758 2815 
Q 2500 3097 2075 3097 
Q 1594 3097 1305 2825 
Q 1016 2553 972 2059 
L 3022 2063 
z
" transform="scale(0.015625)"/>
       <path id="DejaVuSans-69" d="M 603 3500 
L 1178 3500 
L 1178 0 
L 603 0 
L 603 3500 
z
M 603 4863 
L 1178 4863 
L 1178 4134 
L 603 4134 
L 603 4863 
z
" transform="scale(0.015625)"/>
       <path id="DejaVuSans-73" d="M 2834 3397 
L 2834 2853 
Q 2591 2978 2328 3040 
Q 2066 3103 1784 3103 
Q 1356 3103 1142 2972 
Q 928 2841 928 2578 
Q 928 2378 1081 2264 
Q 1234 2150 1697 2047 
L 1894 2003 
Q 2506 1872 2764 1633 
Q 3022 1394 3022 966 
Q 3022 478 2636 193 
Q 2250 -91 1575 -91 
Q 1294 -91 989 -36 
Q 684 19 347 128 
L 347 722 
Q 666 556 975 473 
Q 1284 391 1588 391 
Q 1994 391 2212 530 
Q 2431 669 2431 922 
Q 2431 1156 2273 1281 
Q 2116 1406 1581 1522 
L 1381 1569 
Q 847 1681 609 1914 
Q 372 2147 372 2553 
Q 372 3047 722 3315 
Q 1072 3584 1716 3584 
Q 2034 3584 2315 3537 
Q 2597 3491 2834 3397 
z
" transform="scale(0.015625)"/>
       <path id="DejaVuSans-74" d="M 1172 4494 
L 1172 3500 
L 2356 3500 
L 2356 3053 
L 1172 3053 
L 1172 1153 
Q 1172 725 1289 603 
Q 1406 481 1766 481 
L 2356 481 
L 2356 0 
L 1766 0 
Q 1100 0 847 248 
Q 594 497 594 1153 
L 594 3053 
L 172 3053 
L 172 3500 
L 594 3500 
L 594 4494 
L 1172 4494 
z
" transform="scale(0.015625)"/>
       <path id="DejaVuSans-75" d="M 544 1381 
L 544 3500 
L 1119 3500 
L 1119 1403 
Q 1119 906 1312 657 
Q 1506 409 1894 409 
Q 2359 409 2629 706 
Q 2900 1003 2900 1516 
L 2900 3500 
L 3475 3500 
L 3475 0 
L 2900 0 
L 2900 538 
Q 2691 219 2414 64 
Q 2138 -91 1772 -91 
Q 1169 -91 856 284 
Q 544 659 544 1381 
z
M 1991 3584 
L 1991 3584 
z
" transform="scale(0.015625)"/>
       <path id="DejaVuSans-6e" d="M 3513 2113 
L 3513 0 
L 2938 0 
L 2938 2094 
Q 2938 2591 2744 2837 
Q 2550 3084 2163 3084 
Q 1697 3084 1428 2787 
Q 1159 2491 1159 1978 
L 1159 0 
L 581 0 
L 581 3500 
L 1159 3500 
L 1159 2956 
Q 1366 3272 1645 3428 
Q 1925 3584 2291 3584 
Q 2894 3584 3203 3211 
Q 3513 2838 3513 2113 
z
" transform="scale(0.015625)"/>
       <path id="DejaVuSans-67" d="M 2906 1791 
Q 2906 2416 2648 2759 
Q 2391 3103 1925 3103 
Q 1463 3103 1205 2759 
Q 947 2416 947 1791 
Q 947 1169 1205 825 
Q 1463 481 1925 481 
Q 2391 481 2648 825 
Q 2906 1169 2906 1791 
z
M 3481 434 
Q 3481 -459 3084 -895 
Q 2688 -1331 1869 -1331 
Q 1566 -1331 1297 -1286 
Q 1028 -1241 775 -1147 
L 775 -588 
Q 1028 -725 1275 -790 
Q 1522 -856 1778 -856 
Q 2344 -856 2625 -561 
Q 2906 -266 2906 331 
L 2906 616 
Q 2728 306 2450 153 
Q 2172 0 1784 0 
Q 1141 0 747 490 
Q 353 981 353 1791 
Q 353 2603 747 3093 
Q 1141 3584 1784 3584 
Q 2172 3584 2450 3431 
Q 2728 3278 2906 2969 
L 2906 3500 
L 3481 3500 
L 3481 434 
z
" transform="scale(0.015625)"/>
       <path id="DejaVuSans-20" transform="scale(0.015625)"/>
       <path id="DejaVuSans-70" d="M 1159 525 
L 1159 -1331 
L 581 -1331 
L 581 3500 
L 1159 3500 
L 1159 2969 
Q 1341 3281 1617 3432 
Q 1894 3584 2278 3584 
Q 2916 3584 3314 3078 
Q 3713 2572 3713 1747 
Q 3713 922 3314 415 
Q 2916 -91 2278 -91 
Q 1894 -91 1617 61 
Q 1341 213 1159 525 
z
M 3116 1747 
Q 3116 2381 2855 2742 
Q 2594 3103 2138 3103 
Q 1681 3103 1420 2742 
Q 1159 2381 1159 1747 
Q 1159 1113 1420 752 
Q 1681 391 2138 391 
Q 2594 391 2855 752 
Q 3116 1113 3116 1747 
z
" transform="scale(0.015625)"/>
       <path id="DejaVuSans-72" d="M 2631 2963 
Q 2534 3019 2420 3045 
Q 2306 3072 2169 3072 
Q 1681 3072 1420 2755 
Q 1159 2438 1159 1844 
L 1159 0 
L 581 0 
L 581 3500 
L 1159 3500 
L 1159 2956 
Q 1341 3275 1631 3429 
Q 1922 3584 2338 3584 
Q 2397 3584 2469 3576 
Q 2541 3569 2628 3553 
L 2631 2963 
z
" transform="scale(0.015625)"/>
       <path id="DejaVuSans-6f" d="M 1959 3097 
Q 1497 3097 1228 2736 
Q 959 2375 959 1747 
Q 959 1119 1226 758 
Q 1494 397 1959 397 
Q 2419 397 2687 759 
Q 2956 1122 2956 1747 
Q 2956 2369 2687 2733 
Q 2419 3097 1959 3097 
z
M 1959 3584 
Q 2709 3584 3137 3096 
Q 3566 2609 3566 1747 
Q 3566 888 3137 398 
Q 2709 -91 1959 -91 
Q 1206 -91 779 398 
Q 353 888 353 1747 
Q 353 2609 779 3096 
Q 1206 3584 1959 3584 
z
" transform="scale(0.015625)"/>
       <path id="DejaVuSans-46" d="M 628 4666 
L 3309 4666 
L 3309 4134 
L 1259 4134 
L 1259 2759 
L 3109 2759 
L 3109 2228 
L 1259 2228 
L 1259 0 
L 628 0 
L 628 4666 
z
" transform="scale(0.015625)"/>
       <path id="DejaVuSans-68" d="M 3513 2113 
L 3513 0 
L 2938 0 
L 2938 2094 
Q 2938 2591 2744 2837 
Q 2550 3084 2163 3084 
Q 1697 3084 1428 2787 
Q 1159 2491 1159 1978 
L 1159 0 
L 581 0 
L 581 4863 
L 1159 4863 
L 1159 2956 
Q 1366 3272 1645 3428 
Q 1925 3584 2291 3584 
Q 2894 3584 3203 3211 
Q 3513 2838 3513 2113 
z
" transform="scale(0.015625)"/>
       <path id="DejaVuSans-7a" d="M 353 3500 
L 3084 3500 
L 3084 2975 
L 922 459 
L 3084 459 
L 3084 0 
L 275 0 
L 275 525 
L 2438 3041 
L 353 3041 
L 353 3500 
z
" transform="scale(0.015625)"/>
       <path id="DejaVuSans-6b" d="M 581 4863 
L 1159 4863 
L 1159 1991 
L 2875 3500 
L 3609 3500 
L 1753 1863 
L 3688 0 
L 2938 0 
L 1159 1709 
L 1159 0 
L 581 0 
L 581 4863 
z
" transform="scale(0.015625)"/>
       <path id="DejaVuSans-57" d="M 213 4666 
L 850 4666 
L 1831 722 
L 2809 4666 
L 3519 4666 
L 4500 722 
L 5478 4666 
L 6119 4666 
L 4947 0 
L 4153 0 
L 3169 4050 
L 2175 0 
L 1381 0 
L 213 4666 
z
" transform="scale(0.015625)"/>
      </defs>
      <use xlink:href="#DejaVuSans-4c"/>
      <use xlink:href="#DejaVuSans-65" x="53.962891"/>
      <use xlink:href="#DejaVuSans-69" x="115.486328"/>
      <use xlink:href="#DejaVuSans-73" x="143.269531"/>
      <use xlink:href="#DejaVuSans-74" x="195.369141"/>
      <use xlink:href="#DejaVuSans-75" x="234.578125"/>
      <use xlink:href="#DejaVuSans-6e" x="297.957031"/>
      <use xlink:href="#DejaVuSans-67" x="361.335938"/>
      <use xlink:href="#DejaVuSans-20" x="424.8125"/>
      <use xlink:href="#DejaVuSans-70" x="456.599609"/>
      <use xlink:href="#DejaVuSans-72" x="520.076172"/>
      <use xlink:href="#DejaVuSans-6f" x="558.939453"/>
      <use xlink:href="#DejaVuSans-20" x="620.121094"/>
      <use xlink:href="#DejaVuSans-46" x="651.908203"/>
      <use xlink:href="#DejaVuSans-61" x="700.302734"/>
      <use xlink:href="#DejaVuSans-68" x="761.582031"/>
      <use xlink:href="#DejaVuSans-72" x="824.960938"/>
      <use xlink:href="#DejaVuSans-7a" x="866.074219"/>
      <use xlink:href="#DejaVuSans-65" x="918.564453"/>
      <use xlink:href="#DejaVuSans-75" x="980.087891"/>
      <use xlink:href="#DejaVuSans-67" x="1043.466797"/>
      <use xlink:href="#DejaVuSans-20" x="1106.943359"/>
      <use xlink:href="#DejaVuSans-69" x="1138.730469"/>
      <use xlink:href="#DejaVuSans-6e" x="1166.513672"/>
      <use xlink:href="#DejaVuSans-20" x="1229.892578"/>
      <use xlink:href="#DejaVuSans-6b" x="1261.679688"/>
      <use xlink:href="#DejaVuSans-57" x="1319.589844"/>
     </g>
    </g>
   </g>
   <g id="line2d_14">
    <path d="M 53.03 135.02249 
L 56.029667 135.02249 
L 59.029333 135.02249 
L 62.029 135.02249 
L 65.028667 135.02249 
L 68.028333 135.02249 
L 71.028 135.02249 
L 74.027667 135.02249 
L 77.027333 135.02249 
L 80.027 135.02249 
L 83.026667 135.02249 
L 86.026333 135.02249 
L 89.026 97.576581 
L 92.025667 135.02249 
L 95.025333 135.02249 
L 98.025 135.02249 
L 101.024667 135.02249 
L 104.024333 135.02249 
L 107.024 135.02249 
L 110.023667 135.02249 
L 113.023333 135.02249 
L 116.023 135.02249 
L 119.022667 135.02249 
L 122.022333 135.02249 
L 125.022 135.02249 
L 128.021667 135.02249 
L 131.021333 135.02249 
L 134.021 135.02249 
L 137.020667 135.02249 
L 140.020333 135.02249 
L 143.02 135.02249 
L 146.019667 135.02249 
L 149.019333 135.02249 
L 152.019 135.02249 
L 155.018667 135.02249 
L 158.018333 105.960318 
L 161.018 135.02249 
L 164.017667 135.02249 
L 167.017333 135.02249 
L 170.017 135.02249 
L 173.016667 135.02249 
L 176.016333 135.02249 
L 179.016 135.02249 
L 182.015667 135.02249 
L 185.015333 135.02249 
L 188.015 135.02249 
L 191.014667 135.02249 
L 194.014333 135.02249 
L 197.014 135.02249 
L 200.013667 135.02249 
L 203.013333 135.02249 
L 206.013 135.02249 
L 209.012667 135.02249 
L 212.012333 135.02249 
L 215.012 135.02249 
L 218.011667 135.02249 
L 221.011333 135.02249 
L 224.011 135.02249 
L 227.010667 96.904071 
L 230.010333 135.02249 
L 233.01 135.02249 
L 236.009667 135.02249 
L 239.009333 135.02249 
L 242.009 135.02249 
L 245.008667 135.02249 
L 248.008333 135.02249 
L 251.008 135.02249 
L 254.007667 135.02249 
L 257.007333 135.02249 
L 260.007 135.02249 
L 263.006667 135.02249 
L 266.006333 135.02249 
L 269.006 135.02249 
L 272.005667 135.02249 
L 275.005333 135.02249 
L 278.005 135.02249 
L 281.004667 135.02249 
L 284.004333 135.02249 
L 287.004 135.02249 
L 290.003667 135.02249 
L 293.003333 135.02249 
L 296.003 135.02249 
L 299.002667 135.02249 
L 302.002333 88.04996 
L 305.002 135.02249 
L 308.001667 135.02249 
L 311.001333 135.02249 
L 314.001 135.02249 
L 317.000667 135.02249 
L 320.000333 135.02249 
L 323 135.02249 
L 325.999667 135.02249 
L 328.999333 135.02249 
L 331.999 135.02249 
L 334.998667 135.02249 
L 337.998333 135.02249 
L 340.998 135.02249 
L 343.997667 135.02249 
L 346.997333 135.02249 
L 349.997 135.02249 
L 352.996667 135.02249 
L 355.996333 135.02249 
L 358.996 135.02249 
L 361.995667 135.02249 
L 364.995333 135.02249 
L 367.995 135.02249 
L 370.994667 135.02249 
L 373.994333 88.04996 
L 376.994 135.02249 
L 379.993667 135.02249 
L 382.993333 135.02249 
L 385.993 135.02249 
L 388.992667 135.02249 
L 391.992333 135.02249 
L 394.992 135.02249 
L 397.991667 135.02249 
L 400.991333 135.02249 
L 403.991 135.02249 
L 406.990667 135.02249 
L 409.990333 135.02249 
L 412.99 135.02249 
" clip-path="url(#pb9a046e1ad)" style="fill: none; stroke: #1f77b4; stroke-width: 1.5; stroke-linecap: square"/>
   </g>
   <g id="line2d_15">
    <path d="M 53.03 135.047905 
L 56.029667 135.069394 
L 59.029333 135.044972 
L 62.029 135.032492 
L 65.028667 135.039795 
L 68.028333 135.058125 
L 71.028 135.094243 
L 74.027667 135.188107 
L 77.027333 135.24544 
L 80.027 135.306991 
L 83.026667 135.02249 
L 86.026333 81.880638 
L 89.026 25.749123 
L 92.025667 135.493918 
L 95.025333 135.522304 
L 98.025 135.540741 
L 101.024667 135.502321 
L 104.024333 135.55346 
L 107.024 245.531577 
L 110.023667 135.468541 
L 113.023333 135.344332 
L 116.023 135.206024 
L 119.022667 135.169068 
L 122.022333 135.088804 
L 125.022 135.039717 
L 128.021667 135.051029 
L 131.021333 135.046597 
L 134.021 135.03877 
L 137.020667 135.039605 
L 140.020333 135.046078 
L 143.02 135.042623 
L 146.019667 135.067602 
L 149.019333 135.09656 
L 152.019 135.02249 
L 155.018667 135.02249 
L 158.018333 102.258662 
L 161.018 135.02249 
L 164.017667 135.02249 
L 167.017333 135.483941 
L 170.017 135.458966 
L 173.016667 135.345314 
L 176.016333 135.435205 
L 179.016 135.487564 
L 182.015667 135.358143 
L 185.015333 135.295026 
L 188.015 135.193495 
L 191.014667 135.144708 
L 194.014333 135.09506 
L 197.014 135.025991 
L 200.013667 135.030691 
L 203.013333 135.029128 
L 206.013 135.03244 
L 209.012667 135.034538 
L 212.012333 135.062659 
L 215.012 135.137871 
L 218.011667 135.282718 
L 221.011333 135.348017 
L 224.011 135.335357 
L 227.010667 30.281464 
L 230.010333 29.62524 
L 233.01 102.992001 
L 236.009667 135.406404 
L 239.009333 135.453343 
L 242.009 135.484463 
L 245.008667 135.534407 
L 248.008333 135.630381 
L 251.008 244.182635 
L 254.007667 209.590457 
L 257.007333 135.364455 
L 260.007 135.205585 
L 263.006667 135.150174 
L 266.006333 135.077677 
L 269.006 135.031523 
L 272.005667 135.035668 
L 275.005333 135.027273 
L 278.005 135.026719 
L 281.004667 135.029013 
L 284.004333 135.061222 
L 287.004 135.198431 
L 290.003667 135.02249 
L 293.003333 135.02249 
L 296.003 135.02249 
L 299.002667 135.02249 
L 302.002333 84.315644 
L 305.002 135.02249 
L 308.001667 135.02249 
L 311.001333 135.02249 
L 314.001 135.02249 
L 317.000667 135.02249 
L 320.000333 135.75922 
L 323 135.821324 
L 325.999667 135.724337 
L 328.999333 135.4559 
L 331.999 135.275184 
L 334.998667 135.169339 
L 337.998333 135.068169 
L 340.998 135.031523 
L 343.997667 135.035668 
L 346.997333 135.027273 
L 349.997 135.026719 
L 352.996667 135.029013 
L 355.996333 135.061222 
L 358.996 135.198431 
L 361.995667 135.02249 
L 364.995333 135.02249 
L 367.995 135.02249 
L 370.994667 135.02249 
L 373.994333 84.315644 
L 376.994 135.02249 
L 379.993667 135.02249 
L 382.993333 135.02249 
L 385.993 135.02249 
L 388.992667 135.02249 
L 391.992333 135.75922 
L 394.992 135.821324 
L 397.991667 135.724337 
L 400.991333 135.4559 
L 403.991 135.275184 
L 406.990667 135.169339 
L 409.990333 135.068169 
L 412.99 135.035116 
" clip-path="url(#pb9a046e1ad)" style="fill: none; stroke: #aec7e8; stroke-width: 1.5; stroke-linecap: square"/>
   </g>
   <g id="line2d_16">
    <path d="M 53.03 134.87458 
L 56.029667 134.749511 
L 59.029333 134.891646 
L 62.029 134.964282 
L 65.028667 134.921779 
L 68.028333 134.815094 
L 71.028 134.604891 
L 74.027667 134.058603 
L 77.027333 133.724924 
L 80.027 133.366698 
L 83.026667 132.839584 
L 86.026333 132.612713 
L 89.026 132.371581 
L 92.025667 132.278781 
L 95.025333 132.113575 
L 98.025 132.006271 
L 101.024667 132.229875 
L 104.024333 131.932247 
L 107.024 131.732064 
L 110.023667 132.426473 
L 113.023333 133.149374 
L 116.023 133.954327 
L 119.022667 134.169405 
L 122.022333 134.636544 
L 125.022 134.922231 
L 128.021667 134.856398 
L 131.021333 134.882192 
L 134.021 134.927742 
L 137.020667 134.922885 
L 140.020333 134.885212 
L 143.02 134.90532 
L 146.019667 134.759938 
L 149.019333 134.591404 
L 152.019 134.0777 
L 155.018667 133.210546 
L 158.018333 132.924615 
L 161.018 132.726537 
L 164.017667 132.806009 
L 167.017333 132.336848 
L 170.017 132.482204 
L 173.016667 133.143656 
L 176.016333 132.620489 
L 179.016 132.315759 
L 182.015667 133.068989 
L 185.015333 133.436331 
L 188.015 134.027243 
L 191.014667 134.311186 
L 194.014333 134.600137 
L 197.014 135.002119 
L 200.013667 134.974762 
L 203.013333 134.983856 
L 206.013 134.964582 
L 209.012667 134.952375 
L 212.012333 134.788708 
L 215.012 134.350977 
L 218.011667 133.507965 
L 221.011333 133.127926 
L 224.011 133.201604 
L 227.010667 133.344988 
L 230.010333 132.88634 
L 233.01 132.661405 
L 236.009667 132.788111 
L 239.009333 132.514927 
L 242.009 132.333811 
L 245.008667 132.043135 
L 248.008333 131.484566 
L 251.008 131.161692 
L 254.007667 131.790614 
L 257.007333 133.032256 
L 260.007 133.956882 
L 263.006667 134.27937 
L 266.006333 134.701305 
L 269.006 134.96992 
L 272.005667 134.945798 
L 275.005333 134.994657 
L 278.005 134.997878 
L 281.004667 134.984528 
L 284.004333 134.79707 
L 287.004 133.998517 
L 290.003667 132.404669 
L 293.003333 131.773857 
L 296.003 132.553725 
L 299.002667 132.951366 
L 302.002333 132.646976 
L 305.002 132.594153 
L 308.001667 132.234198 
L 311.001333 132.536046 
L 314.001 132.097448 
L 317.000667 131.133645 
L 320.000333 130.734721 
L 323 130.373281 
L 325.999667 130.937744 
L 328.999333 132.500047 
L 331.999 133.551816 
L 334.998667 134.167831 
L 337.998333 134.756641 
L 340.998 134.96992 
L 343.997667 134.945798 
L 346.997333 134.994657 
L 349.997 134.997878 
L 352.996667 134.984528 
L 355.996333 134.79707 
L 358.996 133.998517 
L 361.995667 132.404669 
L 364.995333 131.773857 
L 367.995 132.553725 
L 370.994667 132.951366 
L 373.994333 132.646976 
L 376.994 132.594153 
L 379.993667 132.234198 
L 382.993333 132.536046 
L 385.993 132.097448 
L 388.992667 131.133645 
L 391.992333 130.734721 
L 394.992 130.373281 
L 397.991667 130.937744 
L 400.991333 132.500047 
L 403.991 133.551816 
L 406.990667 134.167831 
L 409.990333 134.756641 
L 412.99 134.949007 
" clip-path="url(#pb9a046e1ad)" style="fill: none; stroke: #ff7f0e; stroke-width: 1.5; stroke-linecap: square"/>
   </g>
   <g id="patch_3">
    <path d="M 53.03 256.5207 
L 53.03 14.76 
" style="fill: none; stroke: #000000; stroke-width: 0.8; stroke-linejoin: miter; stroke-linecap: square"/>
   </g>
   <g id="patch_4">
    <path d="M 412.99 256.5207 
L 412.99 14.76 
" style="fill: none; stroke: #000000; stroke-width: 0.8; stroke-linejoin: miter; stroke-linecap: square"/>
   </g>
   <g id="patch_5">
    <path d="M 53.03 256.5207 
L 412.99 256.5207 
" style="fill: none; stroke: #000000; stroke-width: 0.8; stroke-linejoin: miter; stroke-linecap: square"/>
   </g>
   <g id="patch_6">
    <path d="M 53.03 14.76 
L 412.99 14.76 
" style="fill: none; stroke: #000000; stroke-width: 0.8; stroke-linejoin: miter; stroke-linecap: square"/>
   </g>
   <g id="legend_1">
    <g id="patch_7">
     <path d="M 93.337344 330.697305 
L 372.682656 330.697305 
Q 374.682656 330.697305 374.682656 328.697305 
L 374.682656 299.784805 
Q 374.682656 297.784805 372.682656 297.784805 
L 93.337344 297.784805 
Q 91.337344 297.784805 91.337344 299.784805 
L 91.337344 328.697305 
Q 91.337344 330.697305 93.337344 330.697305 
z
" style="fill: #ffffff; opacity: 0.8; stroke: #cccccc; stroke-linejoin: miter"/>
    </g>
    <g id="line2d_17">
     <path d="M 95.337344 305.883242 
L 105.337344 305.883242 
L 115.337344 305.883242 
" style="fill: none; stroke: #1f77b4; stroke-width: 1.5; stroke-linecap: square"/>
    </g>
    <g id="text_15">
     <!-- BEV_flex_uni -->
     <g transform="translate(123.337344 309.383242) scale(0.1 -0.1)">
      <defs>
       <path id="DejaVuSans-42" d="M 1259 2228 
L 1259 519 
L 2272 519 
Q 2781 519 3026 730 
Q 3272 941 3272 1375 
Q 3272 1813 3026 2020 
Q 2781 2228 2272 2228 
L 1259 2228 
z
M 1259 4147 
L 1259 2741 
L 2194 2741 
Q 2656 2741 2882 2914 
Q 3109 3088 3109 3444 
Q 3109 3797 2882 3972 
Q 2656 4147 2194 4147 
L 1259 4147 
z
M 628 4666 
L 2241 4666 
Q 2963 4666 3353 4366 
Q 3744 4066 3744 3513 
Q 3744 3084 3544 2831 
Q 3344 2578 2956 2516 
Q 3422 2416 3680 2098 
Q 3938 1781 3938 1306 
Q 3938 681 3513 340 
Q 3088 0 2303 0 
L 628 0 
L 628 4666 
z
" transform="scale(0.015625)"/>
       <path id="DejaVuSans-45" d="M 628 4666 
L 3578 4666 
L 3578 4134 
L 1259 4134 
L 1259 2753 
L 3481 2753 
L 3481 2222 
L 1259 2222 
L 1259 531 
L 3634 531 
L 3634 0 
L 628 0 
L 628 4666 
z
" transform="scale(0.015625)"/>
       <path id="DejaVuSans-56" d="M 1831 0 
L 50 4666 
L 709 4666 
L 2188 738 
L 3669 4666 
L 4325 4666 
L 2547 0 
L 1831 0 
z
" transform="scale(0.015625)"/>
       <path id="DejaVuSans-5f" d="M 3263 -1063 
L 3263 -1509 
L -63 -1509 
L -63 -1063 
L 3263 -1063 
z
" transform="scale(0.015625)"/>
       <path id="DejaVuSans-66" d="M 2375 4863 
L 2375 4384 
L 1825 4384 
Q 1516 4384 1395 4259 
Q 1275 4134 1275 3809 
L 1275 3500 
L 2222 3500 
L 2222 3053 
L 1275 3053 
L 1275 0 
L 697 0 
L 697 3053 
L 147 3053 
L 147 3500 
L 697 3500 
L 697 3744 
Q 697 4328 969 4595 
Q 1241 4863 1831 4863 
L 2375 4863 
z
" transform="scale(0.015625)"/>
       <path id="DejaVuSans-6c" d="M 603 4863 
L 1178 4863 
L 1178 0 
L 603 0 
L 603 4863 
z
" transform="scale(0.015625)"/>
       <path id="DejaVuSans-78" d="M 3513 3500 
L 2247 1797 
L 3578 0 
L 2900 0 
L 1881 1375 
L 863 0 
L 184 0 
L 1544 1831 
L 300 3500 
L 978 3500 
L 1906 2253 
L 2834 3500 
L 3513 3500 
z
" transform="scale(0.015625)"/>
      </defs>
      <use xlink:href="#DejaVuSans-42"/>
      <use xlink:href="#DejaVuSans-45" x="68.603516"/>
      <use xlink:href="#DejaVuSans-56" x="131.787109"/>
      <use xlink:href="#DejaVuSans-5f" x="200.195312"/>
      <use xlink:href="#DejaVuSans-66" x="250.195312"/>
      <use xlink:href="#DejaVuSans-6c" x="285.400391"/>
      <use xlink:href="#DejaVuSans-65" x="313.183594"/>
      <use xlink:href="#DejaVuSans-78" x="372.957031"/>
      <use xlink:href="#DejaVuSans-5f" x="432.136719"/>
      <use xlink:href="#DejaVuSans-75" x="482.136719"/>
      <use xlink:href="#DejaVuSans-6e" x="545.515625"/>
      <use xlink:href="#DejaVuSans-69" x="608.894531"/>
     </g>
    </g>
    <g id="line2d_18">
     <path d="M 95.337344 320.839493 
L 105.337344 320.839493 
L 115.337344 320.839493 
" style="fill: none; stroke: #aec7e8; stroke-width: 1.5; stroke-linecap: square"/>
    </g>
    <g id="text_16">
     <!-- BEV_flex_bi -->
     <g transform="translate(123.337344 324.339493) scale(0.1 -0.1)">
      <defs>
       <path id="DejaVuSans-62" d="M 3116 1747 
Q 3116 2381 2855 2742 
Q 2594 3103 2138 3103 
Q 1681 3103 1420 2742 
Q 1159 2381 1159 1747 
Q 1159 1113 1420 752 
Q 1681 391 2138 391 
Q 2594 391 2855 752 
Q 3116 1113 3116 1747 
z
M 1159 2969 
Q 1341 3281 1617 3432 
Q 1894 3584 2278 3584 
Q 2916 3584 3314 3078 
Q 3713 2572 3713 1747 
Q 3713 922 3314 415 
Q 2916 -91 2278 -91 
Q 1894 -91 1617 61 
Q 1341 213 1159 525 
L 1159 0 
L 581 0 
L 581 4863 
L 1159 4863 
L 1159 2969 
z
" transform="scale(0.015625)"/>
      </defs>
      <use xlink:href="#DejaVuSans-42"/>
      <use xlink:href="#DejaVuSans-45" x="68.603516"/>
      <use xlink:href="#DejaVuSans-56" x="131.787109"/>
      <use xlink:href="#DejaVuSans-5f" x="200.195312"/>
      <use xlink:href="#DejaVuSans-66" x="250.195312"/>
      <use xlink:href="#DejaVuSans-6c" x="285.400391"/>
      <use xlink:href="#DejaVuSans-65" x="313.183594"/>
      <use xlink:href="#DejaVuSans-78" x="372.957031"/>
      <use xlink:href="#DejaVuSans-5f" x="432.136719"/>
      <use xlink:href="#DejaVuSans-62" x="482.136719"/>
      <use xlink:href="#DejaVuSans-69" x="545.613281"/>
     </g>
    </g>
    <g id="line2d_19">
     <path d="M 207.006094 305.883242 
L 217.006094 305.883242 
L 227.006094 305.883242 
" style="fill: none; stroke: #ff7f0e; stroke-width: 1.5; stroke-linecap: square"/>
    </g>
    <g id="text_17">
     <!-- BEV_inflex -->
     <g transform="translate(235.006094 309.383242) scale(0.1 -0.1)">
      <use xlink:href="#DejaVuSans-42"/>
      <use xlink:href="#DejaVuSans-45" x="68.603516"/>
      <use xlink:href="#DejaVuSans-56" x="131.787109"/>
      <use xlink:href="#DejaVuSans-5f" x="200.195312"/>
      <use xlink:href="#DejaVuSans-69" x="250.195312"/>
      <use xlink:href="#DejaVuSans-6e" x="277.978516"/>
      <use xlink:href="#DejaVuSans-66" x="341.357422"/>
      <use xlink:href="#DejaVuSans-6c" x="376.5625"/>
      <use xlink:href="#DejaVuSans-65" x="404.345703"/>
      <use xlink:href="#DejaVuSans-78" x="464.119141"/>
     </g>
    </g>
    <g id="line2d_20">
     <path d="M 207.006094 320.839493 
L 217.006094 320.839493 
L 227.006094 320.839493 
" style="fill: none; stroke: #000000; stroke-width: 1.5; stroke-linecap: square"/>
    </g>
    <g id="text_18">
     <!-- Strommarkt (rechte Achse) -->
     <g transform="translate(235.006094 324.339493) scale(0.1 -0.1)">
      <defs>
       <path id="DejaVuSans-53" d="M 3425 4513 
L 3425 3897 
Q 3066 4069 2747 4153 
Q 2428 4238 2131 4238 
Q 1616 4238 1336 4038 
Q 1056 3838 1056 3469 
Q 1056 3159 1242 3001 
Q 1428 2844 1947 2747 
L 2328 2669 
Q 3034 2534 3370 2195 
Q 3706 1856 3706 1288 
Q 3706 609 3251 259 
Q 2797 -91 1919 -91 
Q 1588 -91 1214 -16 
Q 841 59 441 206 
L 441 856 
Q 825 641 1194 531 
Q 1563 422 1919 422 
Q 2459 422 2753 634 
Q 3047 847 3047 1241 
Q 3047 1584 2836 1778 
Q 2625 1972 2144 2069 
L 1759 2144 
Q 1053 2284 737 2584 
Q 422 2884 422 3419 
Q 422 4038 858 4394 
Q 1294 4750 2059 4750 
Q 2388 4750 2728 4690 
Q 3069 4631 3425 4513 
z
" transform="scale(0.015625)"/>
       <path id="DejaVuSans-6d" d="M 3328 2828 
Q 3544 3216 3844 3400 
Q 4144 3584 4550 3584 
Q 5097 3584 5394 3201 
Q 5691 2819 5691 2113 
L 5691 0 
L 5113 0 
L 5113 2094 
Q 5113 2597 4934 2840 
Q 4756 3084 4391 3084 
Q 3944 3084 3684 2787 
Q 3425 2491 3425 1978 
L 3425 0 
L 2847 0 
L 2847 2094 
Q 2847 2600 2669 2842 
Q 2491 3084 2119 3084 
Q 1678 3084 1418 2786 
Q 1159 2488 1159 1978 
L 1159 0 
L 581 0 
L 581 3500 
L 1159 3500 
L 1159 2956 
Q 1356 3278 1631 3431 
Q 1906 3584 2284 3584 
Q 2666 3584 2933 3390 
Q 3200 3197 3328 2828 
z
" transform="scale(0.015625)"/>
       <path id="DejaVuSans-28" d="M 1984 4856 
Q 1566 4138 1362 3434 
Q 1159 2731 1159 2009 
Q 1159 1288 1364 580 
Q 1569 -128 1984 -844 
L 1484 -844 
Q 1016 -109 783 600 
Q 550 1309 550 2009 
Q 550 2706 781 3412 
Q 1013 4119 1484 4856 
L 1984 4856 
z
" transform="scale(0.015625)"/>
       <path id="DejaVuSans-63" d="M 3122 3366 
L 3122 2828 
Q 2878 2963 2633 3030 
Q 2388 3097 2138 3097 
Q 1578 3097 1268 2742 
Q 959 2388 959 1747 
Q 959 1106 1268 751 
Q 1578 397 2138 397 
Q 2388 397 2633 464 
Q 2878 531 3122 666 
L 3122 134 
Q 2881 22 2623 -34 
Q 2366 -91 2075 -91 
Q 1284 -91 818 406 
Q 353 903 353 1747 
Q 353 2603 823 3093 
Q 1294 3584 2113 3584 
Q 2378 3584 2631 3529 
Q 2884 3475 3122 3366 
z
" transform="scale(0.015625)"/>
       <path id="DejaVuSans-41" d="M 2188 4044 
L 1331 1722 
L 3047 1722 
L 2188 4044 
z
M 1831 4666 
L 2547 4666 
L 4325 0 
L 3669 0 
L 3244 1197 
L 1141 1197 
L 716 0 
L 50 0 
L 1831 4666 
z
" transform="scale(0.015625)"/>
       <path id="DejaVuSans-29" d="M 513 4856 
L 1013 4856 
Q 1481 4119 1714 3412 
Q 1947 2706 1947 2009 
Q 1947 1309 1714 600 
Q 1481 -109 1013 -844 
L 513 -844 
Q 928 -128 1133 580 
Q 1338 1288 1338 2009 
Q 1338 2731 1133 3434 
Q 928 4138 513 4856 
z
" transform="scale(0.015625)"/>
      </defs>
      <use xlink:href="#DejaVuSans-53"/>
      <use xlink:href="#DejaVuSans-74" x="63.476562"/>
      <use xlink:href="#DejaVuSans-72" x="102.685547"/>
      <use xlink:href="#DejaVuSans-6f" x="141.548828"/>
      <use xlink:href="#DejaVuSans-6d" x="202.730469"/>
      <use xlink:href="#DejaVuSans-6d" x="300.142578"/>
      <use xlink:href="#DejaVuSans-61" x="397.554688"/>
      <use xlink:href="#DejaVuSans-72" x="458.833984"/>
      <use xlink:href="#DejaVuSans-6b" x="499.947266"/>
      <use xlink:href="#DejaVuSans-74" x="557.857422"/>
      <use xlink:href="#DejaVuSans-20" x="597.066406"/>
      <use xlink:href="#DejaVuSans-28" x="628.853516"/>
      <use xlink:href="#DejaVuSans-72" x="667.867188"/>
      <use xlink:href="#DejaVuSans-65" x="706.730469"/>
      <use xlink:href="#DejaVuSans-63" x="768.253906"/>
      <use xlink:href="#DejaVuSans-68" x="823.234375"/>
      <use xlink:href="#DejaVuSans-74" x="886.613281"/>
      <use xlink:href="#DejaVuSans-65" x="925.822266"/>
      <use xlink:href="#DejaVuSans-20" x="987.345703"/>
      <use xlink:href="#DejaVuSans-41" x="1019.132812"/>
      <use xlink:href="#DejaVuSans-63" x="1085.791016"/>
      <use xlink:href="#DejaVuSans-68" x="1140.771484"/>
      <use xlink:href="#DejaVuSans-73" x="1204.150391"/>
      <use xlink:href="#DejaVuSans-65" x="1256.25"/>
      <use xlink:href="#DejaVuSans-29" x="1317.773438"/>
     </g>
    </g>
   </g>
  </g>
  <g id="axes_2">
   <g id="matplotlib.axis_3">
    <g id="ytick_8">
     <g id="line2d_21">
      <defs>
       <path id="m46c53175dd" d="M 0 0 
L 3.5 0 
" style="stroke: #000000; stroke-width: 0.8"/>
      </defs>
      <g>
       <use xlink:href="#m46c53175dd" x="412.99" y="256.5207" style="stroke: #000000; stroke-width: 0.8"/>
      </g>
     </g>
     <g id="text_19">
      <!-- 0.0 -->
      <g transform="translate(419.99 260.319919) scale(0.1 -0.1)">
       <defs>
        <path id="DejaVuSans-2e" d="M 684 794 
L 1344 794 
L 1344 0 
L 684 0 
L 684 794 
z
" transform="scale(0.015625)"/>
       </defs>
       <use xlink:href="#DejaVuSans-30"/>
       <use xlink:href="#DejaVuSans-2e" x="63.623047"/>
       <use xlink:href="#DejaVuSans-30" x="95.410156"/>
      </g>
     </g>
    </g>
    <g id="ytick_9">
     <g id="line2d_22">
      <g>
       <use xlink:href="#m46c53175dd" x="412.99" y="208.16856" style="stroke: #000000; stroke-width: 0.8"/>
      </g>
     </g>
     <g id="text_20">
      <!-- 0.1 -->
      <g transform="translate(419.99 211.967779) scale(0.1 -0.1)">
       <use xlink:href="#DejaVuSans-30"/>
       <use xlink:href="#DejaVuSans-2e" x="63.623047"/>
       <use xlink:href="#DejaVuSans-31" x="95.410156"/>
      </g>
     </g>
    </g>
    <g id="ytick_10">
     <g id="line2d_23">
      <g>
       <use xlink:href="#m46c53175dd" x="412.99" y="159.81642" style="stroke: #000000; stroke-width: 0.8"/>
      </g>
     </g>
     <g id="text_21">
      <!-- 0.2 -->
      <g transform="translate(419.99 163.615639) scale(0.1 -0.1)">
       <use xlink:href="#DejaVuSans-30"/>
       <use xlink:href="#DejaVuSans-2e" x="63.623047"/>
       <use xlink:href="#DejaVuSans-32" x="95.410156"/>
      </g>
     </g>
    </g>
    <g id="ytick_11">
     <g id="line2d_24">
      <g>
       <use xlink:href="#m46c53175dd" x="412.99" y="111.46428" style="stroke: #000000; stroke-width: 0.8"/>
      </g>
     </g>
     <g id="text_22">
      <!-- 0.3 -->
      <g transform="translate(419.99 115.263499) scale(0.1 -0.1)">
       <use xlink:href="#DejaVuSans-30"/>
       <use xlink:href="#DejaVuSans-2e" x="63.623047"/>
       <use xlink:href="#DejaVuSans-33" x="95.410156"/>
      </g>
     </g>
    </g>
    <g id="ytick_12">
     <g id="line2d_25">
      <g>
       <use xlink:href="#m46c53175dd" x="412.99" y="63.11214" style="stroke: #000000; stroke-width: 0.8"/>
      </g>
     </g>
     <g id="text_23">
      <!-- 0.4 -->
      <g transform="translate(419.99 66.911359) scale(0.1 -0.1)">
       <use xlink:href="#DejaVuSans-30"/>
       <use xlink:href="#DejaVuSans-2e" x="63.623047"/>
       <use xlink:href="#DejaVuSans-34" x="95.410156"/>
      </g>
     </g>
    </g>
    <g id="ytick_13">
     <g id="line2d_26">
      <g>
       <use xlink:href="#m46c53175dd" x="412.99" y="14.76" style="stroke: #000000; stroke-width: 0.8"/>
      </g>
     </g>
     <g id="text_24">
      <!-- 0.5 -->
      <g transform="translate(419.99 18.559219) scale(0.1 -0.1)">
       <use xlink:href="#DejaVuSans-30"/>
       <use xlink:href="#DejaVuSans-2e" x="63.623047"/>
       <use xlink:href="#DejaVuSans-35" x="95.410156"/>
      </g>
     </g>
    </g>
    <g id="text_25">
     <!-- Strompreis EUR/kWh -->
     <g transform="translate(447.491562 187.4091) rotate(-90) scale(0.1 -0.1)">
      <defs>
       <path id="DejaVuSans-55" d="M 556 4666 
L 1191 4666 
L 1191 1831 
Q 1191 1081 1462 751 
Q 1734 422 2344 422 
Q 2950 422 3222 751 
Q 3494 1081 3494 1831 
L 3494 4666 
L 4128 4666 
L 4128 1753 
Q 4128 841 3676 375 
Q 3225 -91 2344 -91 
Q 1459 -91 1007 375 
Q 556 841 556 1753 
L 556 4666 
z
" transform="scale(0.015625)"/>
       <path id="DejaVuSans-52" d="M 2841 2188 
Q 3044 2119 3236 1894 
Q 3428 1669 3622 1275 
L 4263 0 
L 3584 0 
L 2988 1197 
Q 2756 1666 2539 1819 
Q 2322 1972 1947 1972 
L 1259 1972 
L 1259 0 
L 628 0 
L 628 4666 
L 2053 4666 
Q 2853 4666 3247 4331 
Q 3641 3997 3641 3322 
Q 3641 2881 3436 2590 
Q 3231 2300 2841 2188 
z
M 1259 4147 
L 1259 2491 
L 2053 2491 
Q 2509 2491 2742 2702 
Q 2975 2913 2975 3322 
Q 2975 3731 2742 3939 
Q 2509 4147 2053 4147 
L 1259 4147 
z
" transform="scale(0.015625)"/>
       <path id="DejaVuSans-2f" d="M 1625 4666 
L 2156 4666 
L 531 -594 
L 0 -594 
L 1625 4666 
z
" transform="scale(0.015625)"/>
      </defs>
      <use xlink:href="#DejaVuSans-53"/>
      <use xlink:href="#DejaVuSans-74" x="63.476562"/>
      <use xlink:href="#DejaVuSans-72" x="102.685547"/>
      <use xlink:href="#DejaVuSans-6f" x="141.548828"/>
      <use xlink:href="#DejaVuSans-6d" x="202.730469"/>
      <use xlink:href="#DejaVuSans-70" x="300.142578"/>
      <use xlink:href="#DejaVuSans-72" x="363.619141"/>
      <use xlink:href="#DejaVuSans-65" x="402.482422"/>
      <use xlink:href="#DejaVuSans-69" x="464.005859"/>
      <use xlink:href="#DejaVuSans-73" x="491.789062"/>
      <use xlink:href="#DejaVuSans-20" x="543.888672"/>
      <use xlink:href="#DejaVuSans-45" x="575.675781"/>
      <use xlink:href="#DejaVuSans-55" x="638.859375"/>
      <use xlink:href="#DejaVuSans-52" x="712.052734"/>
      <use xlink:href="#DejaVuSans-2f" x="781.535156"/>
      <use xlink:href="#DejaVuSans-6b" x="815.226562"/>
      <use xlink:href="#DejaVuSans-57" x="873.136719"/>
      <use xlink:href="#DejaVuSans-68" x="972.013672"/>
     </g>
    </g>
   </g>
   <g id="line2d_27">
    <path d="M 53.03 195.830168 
L 56.029667 195.696751 
L 59.029333 195.105904 
L 62.029 194.648474 
L 65.028667 194.210104 
L 68.028333 194.915309 
L 71.028 196.268539 
L 74.027667 196.973743 
L 77.027333 199.203714 
L 80.027 202.157949 
L 83.026667 215.671192 
L 86.026333 216.242979 
L 89.026 216.795707 
L 92.025667 210.429807 
L 95.025333 197.659888 
L 98.025 196.497254 
L 101.024667 193.92421 
L 104.024333 193.238065 
L 107.024 159.445429 
L 110.023667 174.84557 
L 113.023333 189.616745 
L 116.023 191.865776 
L 119.022667 192.914053 
L 122.022333 193.543019 
L 125.022 195.900542 
L 128.021667 193.859701 
L 131.021333 193.543019 
L 134.021 193.085589 
L 137.020667 193.085589 
L 140.020333 194.950495 
L 143.02 196.780215 
L 146.019667 200.052599 
L 149.019333 203.641664 
L 152.019 216.379328 
L 155.018667 215.499655 
L 158.018333 216.696011 
L 161.018 213.142132 
L 164.017667 216.414515 
L 167.017333 206.386244 
L 170.017 201.847131 
L 173.016667 197.448767 
L 176.016333 196.322785 
L 179.016 190.692878 
L 182.015667 191.783673 
L 185.015333 192.417037 
L 188.015 192.980028 
L 191.014667 193.543019 
L 194.014333 194.422692 
L 197.014 191.81886 
L 200.013667 193.543019 
L 203.013333 193.947668 
L 206.013 193.24393 
L 209.012667 192.417037 
L 212.012333 192.804093 
L 215.012 195.12643 
L 218.011667 196.129257 
L 221.011333 197.167271 
L 224.011 202.269374 
L 227.010667 216.379328 
L 230.010333 215.67559 
L 233.01 211.629094 
L 236.009667 204.239842 
L 239.009333 199.014584 
L 242.009 196.709841 
L 245.008667 195.58386 
L 248.008333 181.808182 
L 251.008 129.819511 
L 254.007667 166.501872 
L 257.007333 188.898346 
L 260.007 190.904 
L 263.006667 193.543019 
L 266.006333 194.61622 
L 269.006 191.132715 
L 272.005667 193.19115 
L 275.005333 193.543019 
L 278.005 193.894888 
L 281.004667 194.457879 
L 284.004333 194.880122 
L 287.004 211.805029 
L 290.003667 216.027459 
L 293.003333 216.414515 
L 296.003 216.467296 
L 299.002667 216.414515 
L 302.002333 216.871945 
L 305.002 216.414515 
L 308.001667 216.414515 
L 311.001333 216.414515 
L 314.001 216.414515 
L 317.000667 215.446875 
L 320.000333 204.081501 
L 323 200.158159 
L 325.999667 195.970916 
L 328.999333 195.478299 
L 331.999 196.410753 
L 334.998667 199.014584 
L 337.998333 197.220052 
L 340.998 191.132715 
L 343.997667 193.19115 
L 346.997333 193.543019 
L 349.997 193.894888 
L 352.996667 194.457879 
L 355.996333 194.880122 
L 358.996 211.805029 
L 361.995667 216.027459 
L 364.995333 216.414515 
L 367.995 216.467296 
L 370.994667 216.414515 
L 373.994333 216.871945 
L 376.994 216.414515 
L 379.993667 216.414515 
L 382.993333 216.414515 
L 385.993 216.414515 
L 388.992667 215.446875 
L 391.992333 204.081501 
L 394.992 200.158159 
L 397.991667 195.970916 
L 400.991333 195.478299 
L 403.991 196.410753 
L 406.990667 199.014584 
L 409.990333 197.220052 
L 412.99 199.524795 
" clip-path="url(#pb9a046e1ad)" style="fill: none; stroke: #000000; stroke-width: 1.5; stroke-linecap: square"/>
   </g>
   <g id="patch_8">
    <path d="M 53.03 256.5207 
L 53.03 14.76 
" style="fill: none; stroke: #000000; stroke-width: 0.8; stroke-linejoin: miter; stroke-linecap: square"/>
   </g>
   <g id="patch_9">
    <path d="M 412.99 256.5207 
L 412.99 14.76 
" style="fill: none; stroke: #000000; stroke-width: 0.8; stroke-linejoin: miter; stroke-linecap: square"/>
   </g>
   <g id="patch_10">
    <path d="M 53.03 256.5207 
L 412.99 256.5207 
" style="fill: none; stroke: #000000; stroke-width: 0.8; stroke-linejoin: miter; stroke-linecap: square"/>
   </g>
   <g id="patch_11">
    <path d="M 53.03 14.76 
L 412.99 14.76 
" style="fill: none; stroke: #000000; stroke-width: 0.8; stroke-linejoin: miter; stroke-linecap: square"/>
   </g>
  </g>
 </g>
 <defs>
  <clipPath id="pb9a046e1ad">
   <rect x="53.03" y="14.76" width="359.96" height="241.7607"/>
  </clipPath>
 </defs>
</svg>
